<svg width="368" height="174" viewBox="0 0 368 174" fill="none" xmlns="http://www.w3.org/2000/svg">
<path d="M56.5569 173.523H7.01383C3.1418 173.523 0.00443131 170.381 0.00989257 166.509L0.170767 52.4487C0.173528 50.4914 0.99518 48.6245 2.43665 47.3004L51.9209 1.84584C53.2133 0.658733 54.9041 0 56.659 0H101.209C103.551 0 105.737 1.17037 107.036 3.11886L111.624 10.0008C112.923 11.9493 115.11 13.1196 117.452 13.1196H165.932C168.274 13.1196 170.461 11.9493 171.76 10.0008L176.348 3.11886C177.647 1.17037 179.834 0 182.176 0H356.804C359.035 0 361.133 1.06293 362.452 2.86207L366.246 8.03592C368.365 10.9259 367.961 14.9496 365.309 17.3603L362.646 19.7819C361.185 21.1093 360.353 22.9911 360.353 24.9644V37.5258C360.353 39.2682 359.704 40.948 358.532 42.2372L353.428 47.8511C352.256 49.1403 351.607 50.8201 351.607 52.5624V82.1326C351.607 83.875 352.256 85.5548 353.428 86.844L358.532 92.4579C359.704 93.7471 360.353 95.4269 360.353 97.1693V145.184C360.353 149.052 357.217 152.188 353.349 152.188H257.812C256.246 152.188 254.726 152.712 253.494 153.678L230.056 172.033C228.823 172.998 227.303 173.523 225.737 173.523H56.5569Z" fill="url(#paint0_linear_218_7160)"/>
<defs>
<linearGradient id="paint0_linear_218_7160" x1="180.177" y1="0" x2="180.177" y2="173.523" gradientUnits="userSpaceOnUse">
<stop stop-color="#D0FF9A"/>
<stop offset="1" stop-color="#A9DC6E"/>
</linearGradient>
</defs>
</svg>
